<?xml version="1.0" encoding="UTF-8" standalone="no"?>
<!DOCTYPE svg PUBLIC "-//W3C//DTD SVG 1.1//EN" "http://www.w3.org/Graphics/SVG/1.1/DTD/svg11.dtd">
<svg version="1.1" xmlns="http://www.w3.org/2000/svg" xmlns:xlink="http://www.w3.org/1999/xlink" preserveAspectRatio="xMidYMid meet" viewBox="0 0 640 640" width="640" height="640"><defs><path d="M41.92 319.08C41.92 472.63 166.4 597.11 319.95 597.11C473.5 597.11 597.98 472.63 597.98 319.08C597.98 165.53 473.5 41.05 319.95 41.05C166.4 41.05 41.92 165.53 41.92 319.08Z" id="b11tGWIXw6"></path><path d="M41.92 319.08C41.92 472.63 166.4 597.11 319.95 597.11C473.5 597.11 597.98 472.63 597.98 319.08C597.98 165.53 473.5 41.05 319.95 41.05C166.4 41.05 41.92 165.53 41.92 319.08Z" id="aeCtISTD"></path><path d="M319.95 40.95L319.95 105.29L213.5 63.18L169.34 168.47L122.18 123.63" id="a1slGSMxOC"></path><path d="M319.95 40.95L319.95 105.29L213.5 63.18L169.34 168.47L122.18 123.63" id="a34UnRSBPj"></path><path d="M471.14 168.47L427.28 64.44L319.95 105.29L384.19 168.47L471.14 168.47Z" id="e19b4Zz8F0"></path><path d="M471.14 168.47L427.28 64.44L319.95 105.29L384.19 168.47L471.14 168.47Z" id="a1DHRBZOGV"></path><path d="M471.14 168.47L471.14 470.27L574.69 425.73L534.32 319.08L319.95 534.22L422.72 577.41" id="a1jKkkEJ57"></path><path d="M471.14 168.47L471.14 470.27L574.69 425.73L534.32 319.08L319.95 534.22L422.72 577.41" id="csi2wCxw"></path><path d="M217.18 577.41L319.95 534.22L319.95 597.01" id="b2o5KAlCnz"></path><path d="M217.18 577.41L319.95 534.22L319.95 597.01" id="g2DHhelIK0"></path><path d="M319.95 534.22L105.39 319.08L319.95 105.29" id="c1myl8hwBW"></path><path d="M319.95 534.22L105.39 319.08L319.95 105.29" id="a3mxuRCdP"></path><path d="M515.78 121.69L471.14 168.47L574.69 212.33L534.32 319.08L384.19 168.47L169.34 168.47L168.56 470.27L122.18 514.43" id="daYwAix1a"></path><path d="M515.78 121.69L471.14 168.47L574.69 212.33L534.32 319.08L384.19 168.47L169.34 168.47L168.56 470.27L122.18 514.43" id="dPhlMtC6e"></path><path d="M168.56 470.27L67.25 430.39L105.39 319.08L41.92 319.08" id="d1S8y0X73E"></path><path d="M168.56 470.27L67.25 430.39L105.39 319.08L41.92 319.08" id="c7TqHvukca"></path><path d="M105.39 319.08L63.27 217.09L169.34 168.47" id="h1LZj3Fct8"></path><path d="M105.39 319.08L63.27 217.09L169.34 168.47" id="m3su75Eqw5"></path><path d="M515.4 516.76L471.14 470.27L168.56 470.27L211.46 575.08" id="caTf4KKQIk"></path><path d="M515.4 516.76L471.14 470.27L168.56 470.27L211.46 575.08" id="h1tmtxftx6"></path><path d="M428.45 575.08L471.14 470.27" id="a6hIeOdgiT"></path><path d="M428.45 575.08L471.14 470.27" id="b31M3AuJBK"></path><path d="M597.98 319.08L534.32 319.08" id="a1oF0TVBT9"></path><path d="M597.98 319.08L534.32 319.08" id="e37X0JA1eD"></path></defs><g><g><g><use xlink:href="#b11tGWIXw6" opacity="0.1" fill="#000000" fill-opacity="0"></use><g><use xlink:href="#b11tGWIXw6" opacity="0.1" fill-opacity="0" stroke="#000000" stroke-width="0.5" stroke-opacity="0"></use></g></g><g><use xlink:href="#aeCtISTD" opacity="0.1" fill="#000000" fill-opacity="0"></use><g><use xlink:href="#aeCtISTD" opacity="0.1" fill-opacity="0" stroke="#4d4d4d" stroke-width="0.5" stroke-opacity="1"></use></g></g><g><use xlink:href="#a1slGSMxOC" opacity="0.1" fill="#000000" fill-opacity="0"></use><g><use xlink:href="#a1slGSMxOC" opacity="0.1" fill-opacity="0" stroke="#000000" stroke-width="0.5" stroke-opacity="0"></use></g></g><g><use xlink:href="#a34UnRSBPj" opacity="0.1" fill="#000000" fill-opacity="0"></use><g><use xlink:href="#a34UnRSBPj" opacity="0.1" fill-opacity="0" stroke="#4d4d4d" stroke-width="0.5" stroke-opacity="1"></use></g></g><g><use xlink:href="#e19b4Zz8F0" opacity="0.1" fill="#000000" fill-opacity="0"></use><g><use xlink:href="#e19b4Zz8F0" opacity="0.1" fill-opacity="0" stroke="#000000" stroke-width="0.5" stroke-opacity="0"></use></g></g><g><use xlink:href="#a1DHRBZOGV" opacity="0.1" fill="#000000" fill-opacity="0"></use><g><use xlink:href="#a1DHRBZOGV" opacity="0.1" fill-opacity="0" stroke="#4d4d4d" stroke-width="0.5" stroke-opacity="1"></use></g></g><g><use xlink:href="#a1jKkkEJ57" opacity="0.1" fill="#000000" fill-opacity="0"></use><g><use xlink:href="#a1jKkkEJ57" opacity="0.1" fill-opacity="0" stroke="#000000" stroke-width="0.5" stroke-opacity="0"></use></g></g><g><use xlink:href="#csi2wCxw" opacity="0.1" fill="#000000" fill-opacity="0"></use><g><use xlink:href="#csi2wCxw" opacity="0.1" fill-opacity="0" stroke="#4d4d4d" stroke-width="0.5" stroke-opacity="1"></use></g></g><g><use xlink:href="#b2o5KAlCnz" opacity="0.1" fill="#000000" fill-opacity="0"></use><g><use xlink:href="#b2o5KAlCnz" opacity="0.1" fill-opacity="0" stroke="#000000" stroke-width="0.5" stroke-opacity="0"></use></g></g><g><use xlink:href="#g2DHhelIK0" opacity="0.1" fill="#000000" fill-opacity="0"></use><g><use xlink:href="#g2DHhelIK0" opacity="0.1" fill-opacity="0" stroke="#4d4d4d" stroke-width="0.5" stroke-opacity="1"></use></g></g><g><use xlink:href="#c1myl8hwBW" opacity="0.1" fill="#000000" fill-opacity="0"></use><g><use xlink:href="#c1myl8hwBW" opacity="0.1" fill-opacity="0" stroke="#000000" stroke-width="0.5" stroke-opacity="0"></use></g></g><g><use xlink:href="#a3mxuRCdP" opacity="0.1" fill="#000000" fill-opacity="0"></use><g><use xlink:href="#a3mxuRCdP" opacity="0.1" fill-opacity="0" stroke="#4d4d4d" stroke-width="0.5" stroke-opacity="1"></use></g></g><g><use xlink:href="#daYwAix1a" opacity="0.1" fill="#000000" fill-opacity="0"></use><g><use xlink:href="#daYwAix1a" opacity="0.1" fill-opacity="0" stroke="#000000" stroke-width="0.5" stroke-opacity="0"></use></g></g><g><use xlink:href="#dPhlMtC6e" opacity="0.1" fill="#000000" fill-opacity="0"></use><g><use xlink:href="#dPhlMtC6e" opacity="0.1" fill-opacity="0" stroke="#4d4d4d" stroke-width="0.5" stroke-opacity="1"></use></g></g><g><use xlink:href="#d1S8y0X73E" opacity="0.1" fill="#000000" fill-opacity="0"></use><g><use xlink:href="#d1S8y0X73E" opacity="0.1" fill-opacity="0" stroke="#000000" stroke-width="0.5" stroke-opacity="0"></use></g></g><g><use xlink:href="#c7TqHvukca" opacity="0.1" fill="#000000" fill-opacity="0"></use><g><use xlink:href="#c7TqHvukca" opacity="0.1" fill-opacity="0" stroke="#4d4d4d" stroke-width="0.5" stroke-opacity="1"></use></g></g><g><use xlink:href="#h1LZj3Fct8" opacity="0.1" fill="#000000" fill-opacity="0"></use><g><use xlink:href="#h1LZj3Fct8" opacity="0.1" fill-opacity="0" stroke="#000000" stroke-width="0.5" stroke-opacity="0"></use></g></g><g><use xlink:href="#m3su75Eqw5" opacity="0.1" fill="#000000" fill-opacity="0"></use><g><use xlink:href="#m3su75Eqw5" opacity="0.1" fill-opacity="0" stroke="#4d4d4d" stroke-width="0.5" stroke-opacity="1"></use></g></g><g><use xlink:href="#caTf4KKQIk" opacity="0.1" fill="#000000" fill-opacity="0"></use><g><use xlink:href="#caTf4KKQIk" opacity="0.1" fill-opacity="0" stroke="#000000" stroke-width="0.5" stroke-opacity="0"></use></g></g><g><use xlink:href="#h1tmtxftx6" opacity="0.1" fill="#000000" fill-opacity="0"></use><g><use xlink:href="#h1tmtxftx6" opacity="0.1" fill-opacity="0" stroke="#4d4d4d" stroke-width="0.5" stroke-opacity="1"></use></g></g><g><use xlink:href="#a6hIeOdgiT" opacity="0.1" fill="#000000" fill-opacity="0"></use><g><use xlink:href="#a6hIeOdgiT" opacity="0.1" fill-opacity="0" stroke="#000000" stroke-width="0.5" stroke-opacity="0"></use></g></g><g><use xlink:href="#b31M3AuJBK" opacity="0.1" fill="#000000" fill-opacity="0"></use><g><use xlink:href="#b31M3AuJBK" opacity="0.1" fill-opacity="0" stroke="#4d4d4d" stroke-width="0.5" stroke-opacity="1"></use></g></g><g><use xlink:href="#a1oF0TVBT9" opacity="0.1" fill="#000000" fill-opacity="0"></use><g><use xlink:href="#a1oF0TVBT9" opacity="0.1" fill-opacity="0" stroke="#000000" stroke-width="0.5" stroke-opacity="0"></use></g></g><g><use xlink:href="#e37X0JA1eD" opacity="0.1" fill="#000000" fill-opacity="0"></use><g><use xlink:href="#e37X0JA1eD" opacity="0.1" fill-opacity="0" stroke="#4d4d4d" stroke-width="0.5" stroke-opacity="1"></use></g></g></g></g></svg>